<svg width="302" height="149" viewBox="0 0 302 149" fill="none" xmlns="http://www.w3.org/2000/svg">
<g filter="url(#filter0_d)">
<ellipse rx="134.575" ry="60.572" transform="matrix(0.992462 0.122554 -0.287906 0.957659 151 74.5)" fill="url(#paint0_radial)"/>
<g filter="url(#filter1_d)">
<ellipse rx="51.0355" ry="22.9709" transform="matrix(0.992462 0.122554 -0.287906 0.957659 150.259 63.6669)" fill="url(#paint1_radial)"/>
<path d="M200.413 69.8602C198.679 75.6292 191.653 80.3436 181.325 83.1829C171.05 86.0078 157.723 86.9069 143.789 85.1864C129.856 83.4658 118.003 79.4573 110.102 74.3879C102.16 69.2925 98.3699 63.2425 100.104 57.4736C101.839 51.7047 108.865 46.9903 119.192 44.1509C129.467 41.326 142.795 40.4269 156.728 42.1475C170.662 43.868 182.514 47.8765 190.416 52.9459C198.358 58.0414 202.148 64.0913 200.413 69.8602Z" stroke="#3A3A3A"/>
</g>
<g filter="url(#filter2_d)">
<mask id="path-4-inside-1" fill="white">
<ellipse rx="23.8811" ry="10.7488" transform="matrix(0.992462 0.122554 -0.287906 0.957659 150.154 61.1442)"/>
</mask>
<ellipse rx="23.8811" ry="10.7488" transform="matrix(0.992462 0.122554 -0.287906 0.957659 150.154 61.1442)" fill="url(#paint2_radial)"/>
<path d="M154.005 61.6199C155.427 56.8922 158.651 54.0601 160.266 52.9454C161.749 51.9217 162.521 51.8303 161.828 52.0209C160.491 52.3886 157.219 52.8283 152.817 52.2847L141.301 90.5911C149.988 91.6638 159.26 91.2626 167.621 88.964C173.877 87.244 189.173 81.5939 193.704 66.522L154.005 61.6199ZM152.817 52.2847C148.415 51.7411 145.632 50.5537 144.604 49.8939C144.071 49.552 144.735 49.8207 145.518 51.1243C146.371 52.5438 147.723 55.9409 146.302 60.6686L106.603 55.7664C102.072 70.8383 112.998 79.7264 117.809 82.813C124.238 86.938 132.613 89.5183 141.301 90.5911L152.817 52.2847ZM146.302 60.6686C144.88 65.3962 141.656 68.2283 140.041 69.343C138.558 70.3668 137.786 70.4581 138.479 70.2676C139.816 69.8999 143.088 69.4601 147.49 70.0037L159.006 31.6974C150.319 30.6246 141.047 31.0258 132.687 33.3244C126.431 35.0444 111.134 40.6945 106.603 55.7664L146.302 60.6686ZM147.49 70.0037C151.892 70.5473 154.675 71.7347 155.703 72.3945C156.236 72.7365 155.572 72.4678 154.789 71.1641C153.936 69.7447 152.584 66.3475 154.005 61.6199L193.704 66.522C198.235 51.4501 187.31 42.562 182.499 39.4754C176.069 35.3504 167.694 32.7701 159.006 31.6974L147.49 70.0037Z" fill="#3A3A3A" mask="url(#path-4-inside-1)"/>
</g>
<g filter="url(#filter3_d)">
<path d="M150.599 37.1387L156.729 38.0218L151.264 62.7885C150.967 62.9924 150.533 63.1465 149.988 63.2272C149.365 63.3194 148.65 63.3076 147.95 63.2026C147.25 63.0975 146.587 62.9024 146.063 62.6435C145.604 62.4169 145.294 62.1628 145.132 61.9157L150.599 37.1387Z" fill="url(#paint3_radial)" stroke="#3A3A3A"/>
<path d="M157.036 36.8522C156.967 37.1646 156.658 37.5074 156.017 37.75C155.391 37.987 154.543 38.0834 153.631 37.952C152.719 37.8206 151.964 37.4934 151.478 37.0961C150.98 36.6895 150.837 36.2815 150.906 35.9691C150.975 35.6567 151.284 35.3138 151.925 35.0713C152.551 34.8342 153.399 34.7379 154.311 34.8693C155.223 35.0007 155.978 35.3279 156.464 35.7252C156.962 36.1318 157.105 36.5398 157.036 36.8522Z" fill="url(#paint4_radial)" stroke="#3A3A3A"/>
</g>
</g>
<defs>
<filter id="filter0_d" x="12.2902" y="14.1777" width="277.42" height="128.644" filterUnits="userSpaceOnUse" color-interpolation-filters="sRGB">
<feFlood flood-opacity="0" result="BackgroundImageFix"/>
<feColorMatrix in="SourceAlpha" type="matrix" values="0 0 0 0 0 0 0 0 0 0 0 0 0 0 0 0 0 0 127 0"/>
<feOffset dy="4"/>
<feGaussianBlur stdDeviation="2"/>
<feColorMatrix type="matrix" values="0 0 0 0 0 0 0 0 0 0 0 0 0 0 0 0 0 0 0.25 0"/>
<feBlend mode="normal" in2="BackgroundImageFix" result="effect1_dropShadow"/>
<feBlend mode="normal" in="SourceGraphic" in2="effect1_dropShadow" result="shape"/>
</filter>
<filter id="filter1_d" x="95.1724" y="40.791" width="110.173" height="53.7521" filterUnits="userSpaceOnUse" color-interpolation-filters="sRGB">
<feFlood flood-opacity="0" result="BackgroundImageFix"/>
<feColorMatrix in="SourceAlpha" type="matrix" values="0 0 0 0 0 0 0 0 0 0 0 0 0 0 0 0 0 0 127 0"/>
<feOffset dy="4"/>
<feGaussianBlur stdDeviation="2"/>
<feColorMatrix type="matrix" values="0 0 0 0 0 0 0 0 0 0 0 0 0 0 0 0 0 0 0.25 0"/>
<feBlend mode="normal" in2="BackgroundImageFix" result="effect1_dropShadow"/>
<feBlend mode="normal" in="SourceGraphic" in2="effect1_dropShadow" result="shape"/>
</filter>
<filter id="filter2_d" x="122.249" y="50.4395" width="55.8098" height="29.4088" filterUnits="userSpaceOnUse" color-interpolation-filters="sRGB">
<feFlood flood-opacity="0" result="BackgroundImageFix"/>
<feColorMatrix in="SourceAlpha" type="matrix" values="0 0 0 0 0 0 0 0 0 0 0 0 0 0 0 0 0 0 127 0"/>
<feOffset dy="4"/>
<feGaussianBlur stdDeviation="2"/>
<feColorMatrix type="matrix" values="0 0 0 0 0 0 0 0 0 0 0 0 0 0 0 0 0 0 0.25 0"/>
<feBlend mode="normal" in2="BackgroundImageFix" result="effect1_dropShadow"/>
<feBlend mode="normal" in="SourceGraphic" in2="effect1_dropShadow" result="shape"/>
</filter>
<filter id="filter3_d" x="140.598" y="34.3164" width="20.9612" height="37.4665" filterUnits="userSpaceOnUse" color-interpolation-filters="sRGB">
<feFlood flood-opacity="0" result="BackgroundImageFix"/>
<feColorMatrix in="SourceAlpha" type="matrix" values="0 0 0 0 0 0 0 0 0 0 0 0 0 0 0 0 0 0 127 0"/>
<feOffset dy="4"/>
<feGaussianBlur stdDeviation="2"/>
<feColorMatrix type="matrix" values="0 0 0 0 0 0 0 0 0 0 0 0 0 0 0 0 0 0 0.25 0"/>
<feBlend mode="normal" in2="BackgroundImageFix" result="effect1_dropShadow"/>
<feBlend mode="normal" in="SourceGraphic" in2="effect1_dropShadow" result="shape"/>
</filter>
<radialGradient id="paint0_radial" cx="0" cy="0" r="1" gradientUnits="userSpaceOnUse" gradientTransform="translate(134.575 60.572) rotate(90) scale(60.572 134.575)">
<stop stop-color="#FF4A4A"/>
<stop offset="1" stop-color="#9A3A3A"/>
</radialGradient>
<radialGradient id="paint1_radial" cx="0" cy="0" r="1" gradientUnits="userSpaceOnUse" gradientTransform="translate(51.0355 22.9709) rotate(90) scale(22.9709 51.0355)">
<stop stop-color="#FF4A4A"/>
<stop offset="1" stop-color="#9A3A3A"/>
</radialGradient>
<radialGradient id="paint2_radial" cx="0" cy="0" r="1" gradientUnits="userSpaceOnUse" gradientTransform="translate(23.8811 10.7488) rotate(90) scale(10.7488 23.8811)">
<stop stop-color="#FF4A4A"/>
<stop offset="1" stop-color="#9A3A3A"/>
</radialGradient>
<radialGradient id="paint3_radial" cx="0" cy="0" r="1" gradientUnits="userSpaceOnUse" gradientTransform="translate(150.836 50.3956) rotate(102.443) scale(13.6237 3.58689)">
<stop stop-color="#FF4A4A"/>
<stop offset="1" stop-color="#9A3A3A"/>
</radialGradient>
<radialGradient id="paint4_radial" cx="0" cy="0" r="1" gradientUnits="userSpaceOnUse" gradientTransform="translate(153.971 36.4106) rotate(102.443) scale(2.07843 3.58689)">
<stop stop-color="#FF4A4A"/>
<stop offset="1" stop-color="#9A3A3A"/>
</radialGradient>
</defs>
</svg>
