<svg width="210" height="126" viewBox="0 0 210 126" fill="none" xmlns="http://www.w3.org/2000/svg">
<path d="M195.764 103.519C195.764 103.519 195.761 103.526 195.754 103.54C195.76 103.526 195.763 103.52 195.764 103.519ZM191.303 101.346C193.449 102.409 194.715 103.338 195.371 104.008C194.72 104.681 193.46 105.618 191.321 106.695C187.042 108.85 180.457 110.97 171.825 112.823C154.658 116.509 130.654 118.879 103.938 118.966C77.2228 119.052 53.2039 116.838 36.0133 113.264C27.3688 111.467 20.7708 109.39 16.478 107.263C14.332 106.2 13.066 105.271 12.41 104.602C13.0616 103.928 14.3216 102.991 16.4606 101.914C20.7395 99.7588 27.324 97.639 35.9566 95.7858C53.1236 92.1004 77.1276 89.7302 103.843 89.6435C130.559 89.5567 154.578 91.7711 171.768 95.3449C180.413 97.1421 187.011 99.2191 191.303 101.346ZM12.0143 104.116C12.0148 104.116 12.0188 104.123 12.0249 104.137C12.0168 104.123 12.0138 104.116 12.0143 104.116ZM12.0175 105.09C12.017 105.09 12.02 105.083 12.0279 105.069C12.0219 105.083 12.0179 105.09 12.0175 105.09ZM195.757 104.472C195.765 104.486 195.768 104.493 195.767 104.493C195.767 104.493 195.763 104.486 195.757 104.472Z" fill="#3A3A3A" stroke="url(#paint0_linear)" stroke-width="12"/>
<rect width="186.128" height="46.9807" transform="matrix(0.999999 -0.00166118 0.000895562 1 10.7904 57.9629)" fill="#3A3A3A"/>
<mask id="path-3-inside-1" fill="white">
<ellipse cx="104.319" cy="68.9195" rx="98.0447" ry="22.0807" transform="rotate(-0.185993 104.319 68.9195)"/>
</mask>
<ellipse cx="104.319" cy="68.9195" rx="98.0447" ry="22.0807" transform="rotate(-0.185993 104.319 68.9195)" fill="#3A3A3A"/>
<path d="M177.363 68.6824C177.342 62.1697 180.37 57.9214 181.828 56.3059C183.157 54.8332 183.942 54.6145 182.865 55.1924C180.753 56.3256 176.051 58.1245 168.125 59.9366C152.677 63.4685 130.103 65.9165 104.309 66.0002L104.472 116C132.827 115.908 159.259 113.254 179.269 108.679C189.072 106.438 198.713 103.432 206.507 99.2496C210.383 97.1697 215.011 94.1655 218.943 89.8096C223.004 85.3108 227.394 78.0815 227.363 68.5201L177.363 68.6824ZM104.309 66.0002C78.5159 66.084 55.9265 63.7826 40.4553 60.351C32.5175 58.5904 27.8043 56.8221 25.6853 55.7027C24.6047 55.1318 25.3902 55.3453 26.7292 56.8094C28.198 58.4154 31.2533 62.6439 31.2745 69.1566L-18.7252 69.3189C-18.6942 78.8804 -14.2574 86.081 -10.1672 90.5533C-6.20688 94.8836 -1.55991 97.8577 2.32936 99.9124C10.1501 104.044 19.8106 106.987 29.6283 109.165C49.668 113.61 76.1167 116.092 104.472 116L104.309 66.0002ZM31.2745 69.1566C31.2956 75.6694 28.2678 79.9177 26.8094 81.5332C25.48 83.0059 24.6959 83.2245 25.7727 82.6466C27.8844 81.5134 32.586 79.7146 40.5122 77.9024C55.9609 74.3705 78.5349 71.9226 104.328 71.8388L104.166 21.8391C75.811 21.9311 49.379 24.5852 29.3686 29.1601C19.5652 31.4013 9.92404 34.4071 2.13029 38.5894C-1.74556 40.6693 -6.37312 43.6735 -10.3053 48.0295C-14.3664 52.5283 -18.7563 59.7575 -18.7252 69.3189L31.2745 69.1566ZM104.328 71.8388C130.122 71.7551 152.711 74.0564 168.182 77.488C176.12 79.2486 180.833 81.0169 182.952 82.1364C184.033 82.7073 183.247 82.4937 181.908 81.0297C180.44 79.4237 177.384 75.1951 177.363 68.6824L227.363 68.5201C227.332 58.9587 222.895 51.7581 218.805 47.2857C214.844 42.9554 210.197 39.9813 206.308 37.9266C198.487 33.795 188.827 30.8519 179.009 28.6743C158.97 24.2295 132.521 21.747 104.166 21.8391L104.328 71.8388Z" fill="url(#paint1_linear)" mask="url(#path-3-inside-1)"/>
<ellipse cx="105.18" cy="56.135" rx="91.9882" ry="22.8361" transform="rotate(-0.185993 105.18 56.135)" fill="#3A3A3A"/>
<ellipse cx="104.545" cy="32.6311" rx="104.441" ry="32.2926" transform="rotate(-0.185993 104.545 32.6311)" fill="url(#paint2_radial)"/>
<path d="M5.98539 57.8294L22.5981 57.7755L22.756 106.417C22.0488 107.031 20.8965 107.53 19.4509 107.877C17.9138 108.246 16.1093 108.43 14.3075 108.427C12.5054 108.425 10.725 108.237 9.23617 107.874C7.83517 107.532 6.76007 107.051 6.14332 106.483L5.98539 57.8294Z" fill="url(#paint3_linear)" stroke="#3A3A3A"/>
<path d="M22.5983 57.8074C22.5984 57.8517 22.556 58.0254 22.1444 58.2823C21.7598 58.5224 21.1697 58.7575 20.3959 58.963C18.8557 59.3721 16.6996 59.6348 14.2978 59.6426C11.896 59.6504 9.73819 59.4017 8.19537 59.0027C7.42025 58.8022 6.82863 58.5708 6.44251 58.3333C6.0292 58.079 5.98569 57.9056 5.98555 57.8613C5.9854 57.817 6.02778 57.6433 6.43944 57.3864C6.82401 57.1463 7.41411 56.9111 8.18792 56.7056C9.72811 56.2966 11.8843 56.0339 14.286 56.0261C16.6878 56.0183 18.8456 56.267 20.3884 56.666C21.1636 56.8665 21.7552 57.0978 22.1413 57.3354C22.5546 57.5897 22.5981 57.763 22.5983 57.8074Z" fill="url(#paint4_linear)" stroke="#3A3A3A"/>
<path d="M59.3801 68.6654L75.9928 68.6114L76.1526 117.817C75.4454 118.439 74.2927 118.944 72.8462 119.295C71.3097 119.668 69.5056 119.854 67.7041 119.851C65.9024 119.849 64.1225 119.658 62.6341 119.291C61.2322 118.945 60.1565 118.459 59.5399 117.883L59.3801 68.6654Z" fill="url(#paint5_linear)" stroke="#3A3A3A"/>
<path d="M75.993 68.6501C75.9931 68.7008 75.947 68.8777 75.537 69.1366C75.1526 69.3792 74.5628 69.6169 73.7893 69.8247C72.2497 70.2382 70.094 70.5038 67.6926 70.5116C65.2911 70.5193 63.1338 70.2678 61.5915 69.8643C60.8167 69.6616 60.2253 69.4277 59.8394 69.1875C59.4277 68.9314 59.3804 68.7547 59.3803 68.704C59.3801 68.6533 59.4262 68.4763 59.8363 68.2175C60.2206 67.9748 60.8104 67.7371 61.5839 67.5294C63.1236 67.1159 65.2792 66.8503 67.6807 66.8425C70.0821 66.8347 72.2394 67.0863 73.7817 67.4898C74.5566 67.6925 75.1479 67.9264 75.5338 68.1665C75.9455 68.4227 75.9928 68.5993 75.993 68.6501Z" fill="url(#paint6_linear)" stroke="#3A3A3A"/>
<path d="M126.484 68.4154L143.096 68.3614L143.254 117.003C142.547 117.617 141.395 118.116 139.949 118.463C138.412 118.832 136.608 119.016 134.806 119.013C133.004 119.011 131.223 118.823 129.735 118.459C128.334 118.118 127.258 117.637 126.642 117.069L126.484 68.4154Z" fill="url(#paint7_linear)" stroke="#3A3A3A"/>
<path d="M143.097 68.3953C143.097 68.4396 143.054 68.6133 142.643 68.8702C142.258 69.1103 141.668 69.3454 140.894 69.5509C139.354 69.96 137.198 70.2227 134.796 70.2305C132.394 70.2383 130.236 69.9896 128.694 69.5905C127.919 69.3901 127.327 69.1587 126.941 68.9212C126.527 68.6669 126.484 68.4935 126.484 68.4492C126.484 68.4049 126.526 68.2312 126.938 67.9743C127.322 67.7342 127.912 67.499 128.686 67.2935C130.226 66.8845 132.383 66.6218 134.784 66.614C137.186 66.6062 139.344 66.8549 140.887 67.2539C141.662 67.4544 142.253 67.6857 142.64 67.9233C143.053 68.1776 143.096 68.3509 143.097 68.3953Z" fill="url(#paint8_linear)" stroke="#3A3A3A"/>
<path d="M185.818 57.3148L202.431 57.2609L202.589 105.902C201.882 106.517 200.73 107.015 199.284 107.362C197.747 107.732 195.942 107.915 194.14 107.913C192.338 107.91 190.558 107.722 189.069 107.359C187.668 107.017 186.593 106.537 185.976 105.968L185.818 57.3148Z" fill="url(#paint9_linear)" stroke="#3A3A3A"/>
<path d="M202.431 57.2957C202.431 57.34 202.389 57.5136 201.977 57.7706C201.593 58.0106 201.003 58.2458 200.229 58.4513C198.689 58.8604 196.532 59.1231 194.131 59.1309C191.729 59.1387 189.571 58.89 188.028 58.4909C187.253 58.2905 186.661 58.0591 186.275 57.8216C185.862 57.5673 185.819 57.3939 185.818 57.3496C185.818 57.3052 185.861 57.1316 186.272 56.8746C186.657 56.6346 187.247 56.3994 188.021 56.1939C189.561 55.7849 191.717 55.5222 194.119 55.5144C196.521 55.5066 198.678 55.7553 200.221 56.1543C200.996 56.3548 201.588 56.5861 201.974 56.8237C202.387 57.0779 202.431 57.2513 202.431 57.2957Z" fill="url(#paint10_linear)" stroke="#3A3A3A"/>
<defs>
<linearGradient id="paint0_linear" x1="103.824" y1="83.6435" x2="103.958" y2="124.966" gradientUnits="userSpaceOnUse">
<stop stop-color="#16D5FF"/>
<stop offset="1" stop-color="#086175"/>
</linearGradient>
<linearGradient id="paint1_linear" x1="104.247" y1="46.839" x2="104.39" y2="91.0001" gradientUnits="userSpaceOnUse">
<stop stop-color="#16D5FF"/>
<stop offset="1" stop-color="#086175"/>
</linearGradient>
<radialGradient id="paint2_radial" cx="0" cy="0" r="1" gradientUnits="userSpaceOnUse" gradientTransform="translate(104.545 32.6311) rotate(90) scale(32.2926 104.441)">
<stop stop-color="#646464"/>
<stop offset="1" stop-color="#4A4A4A"/>
</radialGradient>
<linearGradient id="paint3_linear" x1="14.2901" y1="57.3025" x2="14.4577" y2="108.927" gradientUnits="userSpaceOnUse">
<stop stop-color="#16D5FF"/>
<stop offset="1" stop-color="#086175"/>
</linearGradient>
<linearGradient id="paint4_linear" x1="14.2844" y1="55.5261" x2="14.2994" y2="60.1426" gradientUnits="userSpaceOnUse">
<stop stop-color="#16D5FF"/>
<stop offset="1" stop-color="#086175"/>
</linearGradient>
<linearGradient id="paint5_linear" x1="67.6848" y1="68.1384" x2="67.8543" y2="120.351" gradientUnits="userSpaceOnUse">
<stop stop-color="#16D5FF"/>
<stop offset="1" stop-color="#086175"/>
</linearGradient>
<linearGradient id="paint6_linear" x1="67.679" y1="66.3425" x2="67.6942" y2="71.0115" gradientUnits="userSpaceOnUse">
<stop stop-color="#16D5FF"/>
<stop offset="1" stop-color="#086175"/>
</linearGradient>
<linearGradient id="paint7_linear" x1="134.788" y1="67.8884" x2="134.956" y2="119.513" gradientUnits="userSpaceOnUse">
<stop stop-color="#16D5FF"/>
<stop offset="1" stop-color="#086175"/>
</linearGradient>
<linearGradient id="paint8_linear" x1="134.783" y1="66.114" x2="134.798" y2="70.7305" gradientUnits="userSpaceOnUse">
<stop stop-color="#16D5FF"/>
<stop offset="1" stop-color="#086175"/>
</linearGradient>
<linearGradient id="paint9_linear" x1="194.123" y1="56.7878" x2="194.291" y2="108.412" gradientUnits="userSpaceOnUse">
<stop stop-color="#16D5FF"/>
<stop offset="1" stop-color="#086175"/>
</linearGradient>
<linearGradient id="paint10_linear" x1="194.117" y1="55.0144" x2="194.132" y2="59.6309" gradientUnits="userSpaceOnUse">
<stop stop-color="#16D5FF"/>
<stop offset="1" stop-color="#086175"/>
</linearGradient>
</defs>
</svg>
