<svg width="408" height="397" viewBox="0 0 408 397" fill="none" xmlns="http://www.w3.org/2000/svg">
<g id="tom2">
<g id="Rectangle 61">
<mask id="path-1-inside-1" fill="white">
<path d="M256.956 308.185C295.771 300.853 333.251 276.611 344.342 261.685C344.342 261.685 349.94 263.286 344.342 280.686C338.744 298.085 286.715 339.812 272.55 337.734C258.384 335.655 256.956 308.185 256.956 308.185Z"/>
</mask>
<path d="M256.956 308.185C295.771 300.853 333.251 276.611 344.342 261.685C344.342 261.685 349.94 263.286 344.342 280.686C338.744 298.085 286.715 339.812 272.55 337.734C258.384 335.655 256.956 308.185 256.956 308.185Z" fill="#2C2C2C" stroke="#F3FF6A" stroke-width="28" mask="url(#path-1-inside-1)"/>
</g>
<g id="Rectangle 60">
<mask id="path-2-inside-2" fill="white">
<path d="M230.342 316.685C153.342 335.685 88.0444 306.315 74.3416 291.685C60.6388 277.055 64.3416 326.685 100.342 344.684C136.342 362.684 176.342 366.684 216.342 359.685C256.342 352.685 230.342 316.685 230.342 316.685Z"/>
</mask>
<path d="M230.342 316.685C153.342 335.685 88.0444 306.315 74.3416 291.685C60.6388 277.055 64.3416 326.685 100.342 344.684C136.342 362.684 176.342 366.684 216.342 359.685C256.342 352.685 230.342 316.685 230.342 316.685Z" fill="#2C2C2C" stroke="#F3FF6A" stroke-width="32" mask="url(#path-2-inside-2)"/>
</g>
<path id="Ellipse 122" d="M47.3351 195.698C58.8076 258.623 134.377 303.67 222.948 287.522C311.518 271.374 366.328 202.556 354.855 139.631C343.383 76.7058 267.813 31.6589 179.243 47.8072C90.672 63.9554 35.8625 132.773 47.3351 195.698Z" fill="#2C2C2C" stroke="white" stroke-width="34"/>
<g id="Rectangle 64">
<mask id="path-4-inside-3" fill="white">
<path d="M59.0443 274.12C50.1427 269.796 46.4169 261.769 45.6161 258.08C42.3753 267.07 54.2742 290.993 55.4207 282.892C56.5673 274.79 59.0443 274.12 59.0443 274.12Z"/>
</mask>
<path d="M59.0443 274.12C50.1427 269.796 46.4169 261.769 45.6161 258.08C42.3753 267.07 54.2742 290.993 55.4207 282.892C56.5673 274.79 59.0443 274.12 59.0443 274.12Z" fill="#F3FF6A" stroke="#F3FF6A" stroke-width="8" mask="url(#path-4-inside-3)"/>
</g>
</g>
</svg>
