<svg width="589" height="455" viewBox="0 0 589 455" fill="none" xmlns="http://www.w3.org/2000/svg">
<g id="crash">
<path id="Ellipse 169" d="M269.513 406.419C339.186 416.039 405.429 405.525 456.297 380.159C507.105 354.823 543.643 313.984 550.703 262.845C557.764 211.705 533.66 162.494 491.618 124.338C449.527 86.1371 388.611 58.0668 318.938 48.447C249.265 38.8273 183.022 49.3408 132.154 74.7069C81.3462 100.043 44.8085 140.882 37.7477 192.021C30.6869 243.16 54.7914 292.372 96.8328 330.528C138.924 368.729 199.84 396.799 269.513 406.419Z" fill="#2C2C2C" stroke="#E85062" stroke-width="23"/>
<path id="Ellipse 171" d="M282.074 311.347C312.958 315.611 342.895 310.014 366.419 296.687C389.961 283.349 407.923 261.623 411.735 234.015C415.547 206.408 404.143 180.627 385.097 161.409C366.065 142.206 338.763 128.706 307.88 124.442C276.997 120.178 247.059 125.775 223.535 139.103C199.994 152.44 182.031 174.166 178.22 201.774C174.408 229.382 185.811 255.162 204.858 274.38C223.89 293.583 251.191 307.083 282.074 311.347Z" fill="#2C2C2C" stroke="#E85062" stroke-width="36"/>
<ellipse id="Ellipse 172" cx="276.504" cy="202.072" rx="135.232" ry="103.543" transform="rotate(7.86111 276.504 202.072)" fill="#2C2C2C"/>
<ellipse id="Ellipse 173" cx="270.113" cy="193.012" rx="50.1802" ry="35.2796" transform="rotate(7.86111 270.113 193.012)" fill="#E85062"/>
</g>
</svg>
