<svg width="648" height="342" viewBox="0 0 648 342" fill="none" xmlns="http://www.w3.org/2000/svg">
<g id="crash">
<g id="Ellipse 63" filter="url(#filter0_d)">
<ellipse rx="315.174" ry="97.7748" transform="matrix(-0.971387 -0.237503 0.181821 -0.983332 323.933 171)" fill="#3E3E3E"/>
<path d="M20.2059 96.7388C22.447 84.6182 32.4945 74.5259 49.8262 66.937C67.1008 59.3731 91.1328 54.5259 120.304 52.6086C178.617 48.7761 256.888 56.6853 341.256 77.3133C425.625 97.9413 499.924 127.335 551.835 158.118C577.805 173.517 598.043 189.188 611.147 204.18C624.295 219.221 629.902 233.141 627.661 245.261C625.42 257.382 615.372 267.474 598.041 275.063C580.766 282.627 556.734 287.474 527.562 289.391C469.25 293.224 390.979 285.315 306.611 264.687C222.242 244.059 147.943 214.665 96.0315 183.882C70.0618 168.483 49.8237 152.812 36.7197 137.82C23.5723 122.779 17.9647 108.859 20.2059 96.7388Z" stroke="#FF6F6F" stroke-width="5"/>
</g>
<g id="Ellipse 64" filter="url(#filter1_d)">
<ellipse rx="128.036" ry="46.7933" transform="matrix(-0.977862 -0.20925 0.15975 -0.987157 319.683 150.028)" fill="#3E3E3E"/>
<path d="M199.372 124.283C200.085 119.875 203.272 115.56 209.823 111.781C216.358 108.011 225.693 105.123 237.367 103.416C260.672 100.008 292.206 101.463 326.36 108.772C360.514 116.08 390.392 127.767 411.071 140.587C421.429 147.008 429.236 153.565 434.154 159.785C439.085 166.021 440.709 171.365 439.995 175.774C439.282 180.182 436.095 184.497 429.544 188.276C423.009 192.046 413.674 194.934 402 196.641C378.695 200.049 347.161 198.593 313.007 191.285C278.853 183.976 248.974 172.29 228.296 159.47C217.938 153.049 210.131 146.492 205.213 140.272C200.282 134.036 198.658 128.691 199.372 124.283Z" stroke="#FF6F6F" stroke-width="10"/>
</g>
<g id="Ellipse 71" filter="url(#filter2_d)">
<ellipse rx="87.7534" ry="32.0713" transform="matrix(-0.977862 -0.20925 0.15975 -0.987157 323.941 135.116)" fill="#3E3E3E"/>
<path d="M240.575 117.277C241.123 113.89 243.548 110.745 248.164 108.083C252.772 105.424 259.288 103.421 267.351 102.243C283.454 99.8878 305.179 100.898 328.665 105.924C352.152 110.95 372.738 118.993 387.027 127.852C394.181 132.287 399.634 136.851 403.102 141.237C406.576 145.631 407.855 149.569 407.307 152.955C406.759 156.342 404.334 159.487 399.718 162.149C395.11 164.807 388.594 166.81 380.532 167.989C364.428 170.344 342.703 169.333 319.217 164.307C295.731 159.282 275.144 151.238 260.855 142.38C253.701 137.945 248.248 133.38 244.78 128.994C241.306 124.601 240.027 120.663 240.575 117.277Z" stroke="#FF6F6F" stroke-width="5"/>
</g>
</g>
<defs>
<filter id="filter0_d" x="9.25244" y="41.1455" width="629.362" height="259.709" filterUnits="userSpaceOnUse" color-interpolation-filters="sRGB">
<feFlood flood-opacity="0" result="BackgroundImageFix"/>
<feColorMatrix in="SourceAlpha" type="matrix" values="0 0 0 0 0 0 0 0 0 0 0 0 0 0 0 0 0 0 127 0"/>
<feOffset/>
<feGaussianBlur stdDeviation="4"/>
<feColorMatrix type="matrix" values="0 0 0 0 1 0 0 0 0 1 0 0 0 0 1 0 0 0 0.25 0"/>
<feBlend mode="normal" in2="BackgroundImageFix" result="effect1_dropShadow"/>
<feBlend mode="normal" in="SourceGraphic" in2="effect1_dropShadow" result="shape"/>
</filter>
<filter id="filter1_d" x="186.255" y="88.6201" width="266.856" height="122.817" filterUnits="userSpaceOnUse" color-interpolation-filters="sRGB">
<feFlood flood-opacity="0" result="BackgroundImageFix"/>
<feColorMatrix in="SourceAlpha" type="matrix" values="0 0 0 0 0 0 0 0 0 0 0 0 0 0 0 0 0 0 127 0"/>
<feOffset/>
<feGaussianBlur stdDeviation="4"/>
<feColorMatrix type="matrix" values="0 0 0 0 1 0 0 0 0 1 0 0 0 0 1 0 0 0 0.25 0"/>
<feBlend mode="normal" in2="BackgroundImageFix" result="effect1_dropShadow"/>
<feBlend mode="normal" in="SourceGraphic" in2="effect1_dropShadow" result="shape"/>
</filter>
<filter id="filter2_d" x="229.975" y="90.5107" width="187.932" height="89.2104" filterUnits="userSpaceOnUse" color-interpolation-filters="sRGB">
<feFlood flood-opacity="0" result="BackgroundImageFix"/>
<feColorMatrix in="SourceAlpha" type="matrix" values="0 0 0 0 0 0 0 0 0 0 0 0 0 0 0 0 0 0 127 0"/>
<feOffset/>
<feGaussianBlur stdDeviation="4"/>
<feColorMatrix type="matrix" values="0 0 0 0 1 0 0 0 0 1 0 0 0 0 1 0 0 0 0.25 0"/>
<feBlend mode="normal" in2="BackgroundImageFix" result="effect1_dropShadow"/>
<feBlend mode="normal" in="SourceGraphic" in2="effect1_dropShadow" result="shape"/>
</filter>
</defs>
</svg>
