<svg width="622" height="514" viewBox="0 0 622 514" fill="none" xmlns="http://www.w3.org/2000/svg">
<g id="floor" filter="url(#filter0_d)">
<g id="Rectangle 61">
<mask id="path-1-inside-1" fill="white">
<path d="M136.065 349.748C139.487 389.574 168.486 420.36 214.905 454.644C261.323 488.929 270.64 495.815 206.09 475.488C141.54 455.161 66.028 382.116 76.5956 368.374C87.1633 354.633 136.065 349.748 136.065 349.748Z"/>
</mask>
<path d="M136.065 349.748C139.487 389.574 168.486 420.36 214.905 454.644C261.323 488.929 270.64 495.815 206.09 475.488C141.54 455.161 66.028 382.116 76.5956 368.374C87.1633 354.633 136.065 349.748 136.065 349.748Z" fill="#2C2C2C" stroke="#FDAA2E" stroke-width="34" mask="url(#path-1-inside-1)"/>
</g>
<g id="Rectangle 60" filter="url(#filter1_d)">
<mask id="path-2-inside-2" fill="white">
<path d="M145.542 163.315C173.861 109.874 206.406 79.6607 233.572 67.0234C260.738 54.386 173.237 70.5611 173.237 70.5611C173.237 70.5611 124.058 81.2263 99.4326 125.567C74.8076 169.907 145.542 163.315 145.542 163.315Z"/>
</mask>
<path d="M145.542 163.315C173.861 109.874 206.406 79.6607 233.572 67.0234C260.738 54.386 173.237 70.5611 173.237 70.5611C173.237 70.5611 124.058 81.2263 99.4326 125.567C74.8076 169.907 145.542 163.315 145.542 163.315Z" fill="#2C2C2C"/>
<path d="M145.542 163.315C173.861 109.874 206.406 79.6607 233.572 67.0234C260.738 54.386 173.237 70.5611 173.237 70.5611C173.237 70.5611 124.058 81.2263 99.4326 125.567C74.8076 169.907 145.542 163.315 145.542 163.315Z" stroke="#FDAA2E" stroke-width="34" mask="url(#path-2-inside-2)"/>
</g>
<g id="Rectangle 65" filter="url(#filter2_d)">
<mask id="path-3-inside-3" fill="white">
<path d="M130.063 310.805C109.929 245.755 133.678 218.683 133.041 201.724C132.404 184.765 88.7962 172.959 73.8348 189.088C58.8734 205.218 33.7118 232.344 49.3935 291.901C65.0751 351.458 130.063 310.805 130.063 310.805Z"/>
</mask>
<path d="M130.063 310.805C109.929 245.755 133.678 218.683 133.041 201.724C132.404 184.765 88.7962 172.959 73.8348 189.088C58.8734 205.218 33.7118 232.344 49.3935 291.901C65.0751 351.458 130.063 310.805 130.063 310.805Z" fill="#2C2C2C"/>
<path d="M130.063 310.805C109.929 245.755 133.678 218.683 133.041 201.724C132.404 184.765 88.7962 172.959 73.8348 189.088C58.8734 205.218 33.7118 232.344 49.3935 291.901C65.0751 351.458 130.063 310.805 130.063 310.805Z" stroke="#FDAA2E" stroke-width="34" mask="url(#path-3-inside-3)"/>
</g>
<path id="Ellipse 122" d="M374.883 65.1181C259.678 65.0582 167.173 155.876 167.116 266.826C167.058 377.776 259.469 468.69 374.673 468.749C489.878 468.809 582.383 377.992 582.441 267.042C582.498 156.091 490.088 65.1779 374.883 65.1181Z" fill="#2C2C2C" stroke="white" stroke-width="42"/>
</g>
<defs>
<filter id="filter0_d" x="40.4297" y="43.999" width="567.127" height="453.869" filterUnits="userSpaceOnUse" color-interpolation-filters="sRGB">
<feFlood flood-opacity="0" result="BackgroundImageFix"/>
<feColorMatrix in="SourceAlpha" type="matrix" values="0 0 0 0 0 0 0 0 0 0 0 0 0 0 0 0 0 0 127 0"/>
<feOffset dy="4"/>
<feGaussianBlur stdDeviation="2"/>
<feColorMatrix type="matrix" values="0 0 0 0 0 0 0 0 0 0 0 0 0 0 0 0 0 0 0.25 0"/>
<feBlend mode="normal" in2="BackgroundImageFix" result="effect1_dropShadow"/>
<feBlend mode="normal" in="SourceGraphic" in2="effect1_dropShadow" result="shape"/>
</filter>
<filter id="filter1_d" x="90.2269" y="62.1973" width="152.575" height="109.464" filterUnits="userSpaceOnUse" color-interpolation-filters="sRGB">
<feFlood flood-opacity="0" result="BackgroundImageFix"/>
<feColorMatrix in="SourceAlpha" type="matrix" values="0 0 0 0 0 0 0 0 0 0 0 0 0 0 0 0 0 0 127 0"/>
<feOffset dy="4"/>
<feGaussianBlur stdDeviation="2"/>
<feColorMatrix type="matrix" values="0 0 0 0 0 0 0 0 0 0 0 0 0 0 0 0 0 0 0.25 0"/>
<feBlend mode="normal" in2="BackgroundImageFix" result="effect1_dropShadow"/>
<feBlend mode="normal" in="SourceGraphic" in2="effect1_dropShadow" result="shape"/>
</filter>
<filter id="filter2_d" x="40.4297" y="181.427" width="96.6237" height="150.922" filterUnits="userSpaceOnUse" color-interpolation-filters="sRGB">
<feFlood flood-opacity="0" result="BackgroundImageFix"/>
<feColorMatrix in="SourceAlpha" type="matrix" values="0 0 0 0 0 0 0 0 0 0 0 0 0 0 0 0 0 0 127 0"/>
<feOffset dy="4"/>
<feGaussianBlur stdDeviation="2"/>
<feColorMatrix type="matrix" values="0 0 0 0 0 0 0 0 0 0 0 0 0 0 0 0 0 0 0.25 0"/>
<feBlend mode="normal" in2="BackgroundImageFix" result="effect1_dropShadow"/>
<feBlend mode="normal" in="SourceGraphic" in2="effect1_dropShadow" result="shape"/>
</filter>
</defs>
</svg>
