<svg width="251" height="252" viewBox="0 0 251 252" fill="none" xmlns="http://www.w3.org/2000/svg">
<path d="M229.371 174.023C229.894 176.321 229.282 179.598 225.95 184.009C222.64 188.391 217.135 193.188 209.542 198.012C194.403 207.631 172.111 216.637 146.268 222.514C120.425 228.392 96.4304 229.912 78.6208 227.786C69.6883 226.72 62.6497 224.776 57.7707 222.257C52.8582 219.72 50.8892 217.03 50.3666 214.732C49.844 212.434 50.4559 209.157 53.7883 204.746C57.0979 200.364 62.6034 195.567 70.1963 190.743C85.3351 181.124 107.627 172.118 133.47 166.241C159.313 160.363 183.308 158.843 201.117 160.969C210.05 162.035 217.088 163.979 221.967 166.498C226.88 169.035 228.849 171.725 229.371 174.023Z" fill="#3A3A3A" stroke="url(#paint0_linear)" stroke-width="12"/>
<path d="M31.784 138.26L213.388 97.4696L230.856 174.777C213.388 196 127 243 49.252 215.567L31.784 138.26Z" fill="#3A3A3A"/>
<path d="M210.576 117.08C210.653 117.421 210.912 119.188 208.26 122.939C205.611 126.686 200.847 131.188 193.684 135.95C179.435 145.422 157.96 154.428 132.649 160.184C107.339 165.94 84.0811 167.108 67.1378 164.729C58.6197 163.534 52.3769 161.535 48.3687 159.302C44.3549 157.066 43.8237 155.361 43.7462 155.02C43.6687 154.68 43.4102 152.912 46.0624 149.161C48.7107 145.414 53.475 140.912 60.6382 136.15C74.8864 126.678 96.3624 117.672 121.672 111.916C146.982 106.16 170.241 104.992 187.184 107.371C195.702 108.566 201.945 110.565 205.953 112.798C209.967 115.034 210.498 116.739 210.576 117.08Z" fill="#3A3A3A" stroke="url(#paint1_linear)" stroke-width="25"/>
<ellipse cx="123.259" cy="114.825" rx="91.9882" ry="38.5244" transform="rotate(-12.8124 123.259 114.825)" fill="#3A3A3A"/>
<ellipse cx="113.922" cy="76.2816" rx="104.441" ry="54.4775" transform="rotate(-12.8124 113.922 76.2816)" fill="url(#paint2_radial)"/>
<path d="M26.967 138.745L43.1662 135.061L61.4899 215.632C60.5566 218.204 57.4734 220.124 54.0146 220.883C52.2768 221.264 50.4941 221.338 48.9302 221.066C47.4139 220.804 46.1411 220.224 45.293 219.327L26.967 138.745Z" fill="url(#paint3_linear)" stroke="#3A3A3A"/>
<path d="M43.2545 135.447C43.3375 135.812 43.2598 136.235 42.9744 136.711C42.6872 137.191 42.2045 137.697 41.539 138.192C40.2092 139.182 38.2272 140.071 35.9076 140.599C33.5879 141.127 31.4164 141.182 29.7893 140.865C28.975 140.706 28.3208 140.458 27.8544 140.15C27.3909 139.843 27.1383 139.496 27.0553 139.131C26.9724 138.767 27.05 138.344 27.3354 137.868C27.6226 137.388 28.1054 136.882 28.7709 136.387C30.1007 135.397 32.0826 134.508 34.4023 133.98C36.7219 133.452 38.8934 133.397 40.5206 133.714C41.3349 133.873 41.989 134.121 42.4554 134.429C42.9189 134.735 43.1716 135.083 43.2545 135.447Z" fill="url(#paint4_linear)" stroke="#3A3A3A"/>
<path d="M83.1164 145.023L99.3156 141.339L117.85 222.837C116.923 225.437 113.842 227.37 110.384 228.128C108.647 228.509 106.864 228.579 105.299 228.301C103.781 228.032 102.505 227.442 101.653 226.531L83.1164 145.023Z" fill="url(#paint5_linear)" stroke="#3A3A3A"/>
<path d="M99.4072 141.737C99.492 142.109 99.414 142.538 99.1295 143.02C98.8431 143.504 98.3613 144.015 97.697 144.514C96.3693 145.511 94.3891 146.404 92.0701 146.932C89.7511 147.459 87.5793 147.51 85.951 147.185C85.1362 147.022 84.481 146.77 84.0133 146.457C83.5486 146.147 83.2928 145.793 83.208 145.421C83.1233 145.048 83.2012 144.619 83.4858 144.138C83.7722 143.653 84.254 143.143 84.9183 142.644C86.246 141.647 88.2261 140.753 90.5451 140.226C92.8642 139.699 95.036 139.648 96.6643 139.973C97.479 140.135 98.1342 140.387 98.602 140.7C99.0667 141.011 99.3225 141.364 99.4072 141.737Z" fill="url(#paint6_linear)" stroke="#3A3A3A"/>
<path d="M148.538 130.09L164.737 126.406L183.061 206.977C182.127 209.549 179.044 211.469 175.585 212.227C173.848 212.608 172.065 212.682 170.501 212.411C168.985 212.148 167.712 211.569 166.864 210.671L148.538 130.09Z" fill="url(#paint7_linear)" stroke="#3A3A3A"/>
<path d="M164.826 126.795C164.909 127.16 164.831 127.582 164.546 128.059C164.258 128.538 163.776 129.045 163.11 129.54C161.78 130.53 159.798 131.419 157.479 131.947C155.159 132.474 152.988 132.53 151.36 132.212C150.546 132.053 149.892 131.806 149.426 131.497C148.962 131.191 148.709 130.844 148.626 130.479C148.544 130.114 148.621 129.692 148.907 129.215C149.194 128.736 149.677 128.23 150.342 127.734C151.672 126.744 153.654 125.855 155.973 125.328C158.293 124.8 160.465 124.745 162.092 125.062C162.906 125.221 163.56 125.469 164.027 125.777C164.49 126.083 164.743 126.43 164.826 126.795Z" fill="url(#paint8_linear)" stroke="#3A3A3A"/>
<path d="M202.349 98.9812L218.549 95.2971L236.872 175.869C235.939 178.44 232.856 180.36 229.397 181.119C227.659 181.5 225.876 181.574 224.313 181.303C222.796 181.04 221.523 180.46 220.675 179.563L202.349 98.9812Z" fill="url(#paint9_linear)" stroke="#3A3A3A"/>
<path d="M218.637 95.6877C218.72 96.0524 218.643 96.4748 218.357 96.9514C218.07 97.431 217.587 97.9372 216.922 98.4327C215.592 99.4227 213.61 100.312 211.29 100.839C208.971 101.367 206.799 101.422 205.172 101.105C204.358 100.946 203.704 100.698 203.237 100.39C202.774 100.084 202.521 99.7365 202.438 99.3717C202.355 99.007 202.433 98.5847 202.718 98.108C203.006 97.6284 203.488 97.1222 204.154 96.6268C205.484 95.6367 207.465 94.7477 209.785 94.2202C212.105 93.6927 214.276 93.6371 215.903 93.9546C216.718 94.1135 217.372 94.3612 217.838 94.6694C218.302 94.9757 218.554 95.3229 218.637 95.6877Z" fill="url(#paint10_linear)" stroke="#3A3A3A"/>
<defs>
<linearGradient id="paint0_linear" x1="132.14" y1="160.39" x2="147.598" y2="228.365" gradientUnits="userSpaceOnUse">
<stop stop-color="#FFC226"/>
<stop offset="1" stop-color="#856000"/>
</linearGradient>
<linearGradient id="paint1_linear" x1="118.9" y1="99.7275" x2="135.421" y2="172.373" gradientUnits="userSpaceOnUse">
<stop stop-color="#FFC226"/>
<stop offset="1" stop-color="#856000"/>
</linearGradient>
<radialGradient id="paint2_radial" cx="0" cy="0" r="1" gradientUnits="userSpaceOnUse" gradientTransform="translate(113.922 76.2816) rotate(90) scale(54.4775 104.441)">
<stop stop-color="#646464"/>
<stop offset="1" stop-color="#4A4A4A"/>
</radialGradient>
<linearGradient id="paint3_linear" x1="34.9558" y1="136.415" x2="54.269" y2="221.338" gradientUnits="userSpaceOnUse">
<stop stop-color="#FFC226"/>
<stop offset="1" stop-color="#856000"/>
</linearGradient>
<linearGradient id="paint4_linear" x1="34.2914" y1="133.492" x2="36.0184" y2="141.087" gradientUnits="userSpaceOnUse">
<stop stop-color="#FFC226"/>
<stop offset="1" stop-color="#856000"/>
</linearGradient>
<linearGradient id="paint5_linear" x1="91.1051" y1="142.694" x2="110.638" y2="228.583" gradientUnits="userSpaceOnUse">
<stop stop-color="#FFC226"/>
<stop offset="1" stop-color="#856000"/>
</linearGradient>
<linearGradient id="paint6_linear" x1="90.4343" y1="139.739" x2="92.181" y2="147.419" gradientUnits="userSpaceOnUse">
<stop stop-color="#FFC226"/>
<stop offset="1" stop-color="#856000"/>
</linearGradient>
<linearGradient id="paint7_linear" x1="156.527" y1="127.76" x2="175.84" y2="212.683" gradientUnits="userSpaceOnUse">
<stop stop-color="#FFC226"/>
<stop offset="1" stop-color="#856000"/>
</linearGradient>
<linearGradient id="paint8_linear" x1="155.863" y1="124.84" x2="157.59" y2="132.434" gradientUnits="userSpaceOnUse">
<stop stop-color="#FFC226"/>
<stop offset="1" stop-color="#856000"/>
</linearGradient>
<linearGradient id="paint9_linear" x1="210.338" y1="96.6516" x2="229.651" y2="181.574" gradientUnits="userSpaceOnUse">
<stop stop-color="#FFC226"/>
<stop offset="1" stop-color="#856000"/>
</linearGradient>
<linearGradient id="paint10_linear" x1="209.674" y1="93.7326" x2="211.401" y2="101.327" gradientUnits="userSpaceOnUse">
<stop stop-color="#FFC226"/>
<stop offset="1" stop-color="#856000"/>
</linearGradient>
</defs>
</svg>
