<svg width="421" height="314" viewBox="0 0 421 314" fill="none" xmlns="http://www.w3.org/2000/svg">
<g id="hihat">
<ellipse id="Ellipse 156" cx="210.419" cy="163.866" rx="207.666" ry="146.69" transform="rotate(0.715618 210.419 163.866)" fill="#3155D4"/>
<ellipse id="Ellipse 155" cx="213.736" cy="143.868" rx="206" ry="143.311" transform="rotate(-0.155122 213.736 143.868)" fill="#2C2C2C"/>
<path id="Ellipse 160" d="M377.655 137.238C377.736 167.152 360.392 195.171 330.48 216.101C300.598 237.01 258.817 250.276 212.221 250.402C165.625 250.528 123.772 237.488 93.7773 216.742C63.7522 195.974 46.2575 168.049 46.1765 138.136C46.0955 108.222 63.4387 80.2026 93.351 59.2727C123.233 38.3641 165.014 25.0977 211.61 24.9716C258.206 24.8454 300.059 37.8853 330.054 58.6319C360.079 79.3995 377.574 107.324 377.655 137.238Z" fill="#2C2C2C" stroke="#3155D4" stroke-width="17"/>
<ellipse id="Ellipse 161" cx="212.439" cy="129.293" rx="160.788" ry="111.858" transform="rotate(-0.155122 212.439 129.293)" fill="#2C2C2C"/>
<path id="Ellipse 162" d="M279.73 121.084C279.754 130.059 274.572 140.032 262.455 148.51C250.4 156.945 232.788 162.748 212.481 162.803C192.175 162.858 174.532 157.151 162.431 148.781C150.268 140.368 145.032 130.424 145.008 121.449C144.984 112.473 150.166 102.501 162.283 94.0225C174.338 85.5876 191.95 79.7851 212.256 79.7301C232.563 79.6752 250.206 85.3822 262.307 93.7517C274.47 102.165 279.705 112.109 279.73 121.084Z" fill="#2C2C2C" stroke="#3155D4" stroke-width="35"/>
<ellipse id="Ellipse 163" cx="212.859" cy="115.877" rx="61.3947" ry="42.7113" transform="rotate(-0.155122 212.859 115.877)" fill="#2C2C2C"/>
</g>
</svg>
