<svg width="288" height="207" viewBox="0 0 288 207" fill="none" xmlns="http://www.w3.org/2000/svg">
<path d="M18.6173 52.2363C18.5864 47.6514 21.0119 42.5461 27.0111 37.1618C33.0028 31.7842 42.0336 26.6428 53.721 22.1758C77.0515 13.2587 109.729 7.49762 146.16 7.25135C182.591 7.00508 215.343 12.3239 238.792 20.9247C250.539 25.2334 259.638 30.2522 265.702 35.5483C271.773 40.851 274.268 45.923 274.299 50.5079C274.33 55.0927 271.904 60.198 265.905 65.5823C259.913 70.9599 250.883 76.1013 239.195 80.5683C215.865 89.4854 183.187 95.2465 146.756 95.4928C110.325 95.739 77.5731 90.4202 54.1242 81.8194C42.3774 77.5108 33.278 72.4919 27.2141 67.1958C21.1427 61.8931 18.6483 56.8211 18.6173 52.2363Z" fill="#3A3A3A" stroke="url(#paint0_linear)" stroke-width="12"/>
<rect width="254.756" height="78.4371" transform="matrix(-0.999988 0.0048264 -0.00483274 -0.999988 272.733 136.057)" fill="#3A3A3A"/>
<path d="M24.7208 124.674C24.7043 122.226 25.9143 118.501 31.1228 113.678C36.3379 108.849 44.5923 103.902 55.8609 99.4607C78.3167 90.6098 110.23 84.7471 146.147 84.5043C182.065 84.2615 214.054 89.6923 236.628 98.2388C247.955 102.528 256.276 107.362 261.556 112.12C266.829 116.872 268.089 120.581 268.106 123.028C268.122 125.475 266.912 129.201 261.704 134.024C256.489 138.853 248.234 143.8 236.966 148.241C214.51 157.092 182.597 162.955 146.679 163.197C110.762 163.44 78.7723 158.01 56.1989 149.463C44.8713 145.174 36.5507 140.34 31.2709 135.582C25.9976 130.83 24.7374 127.121 24.7208 124.674Z" fill="#3A3A3A" stroke="url(#paint1_linear)" stroke-width="25"/>
<ellipse cx="147.789" cy="135.715" rx="131.494" ry="38.1263" transform="rotate(179.613 147.789 135.715)" fill="#3A3A3A"/>
<ellipse cx="144.526" cy="160.195" rx="142.95" ry="44.9065" transform="rotate(179.613 144.526 160.195)" fill="url(#paint2_radial)"/>
<path d="M280.761 124.513L257.655 124.669L257.103 42.9464C258.096 41.826 259.741 40.9466 261.781 40.3425C263.89 39.7176 266.365 39.4041 268.836 39.4012C271.307 39.3984 273.752 39.7062 275.801 40.3093C277.784 40.893 279.333 41.7345 280.209 42.7781L280.761 124.513Z" fill="url(#paint3_linear)" stroke="#3A3A3A"/>
<path d="M257.652 124.281C257.65 123.977 257.841 123.599 258.394 123.175C258.938 122.758 259.759 122.358 260.82 122.011C262.935 121.319 265.891 120.872 269.183 120.85C272.474 120.827 275.437 121.235 277.561 121.898C278.626 122.231 279.452 122.619 280.003 123.029C280.561 123.445 280.757 123.821 280.759 124.125C280.761 124.429 280.57 124.808 280.017 125.232C279.473 125.649 278.652 126.049 277.591 126.396C275.476 127.088 272.519 127.535 269.228 127.557C265.937 127.579 262.974 127.172 260.85 126.509C259.785 126.176 258.959 125.788 258.408 125.378C257.85 124.961 257.654 124.586 257.652 124.281Z" fill="url(#paint4_linear)" stroke="#3A3A3A"/>
<path d="M209.192 99.6743L186.086 99.8305L185.527 17.1675C186.52 16.0329 188.167 15.1432 190.206 14.5322C192.316 13.9005 194.79 13.5837 197.26 13.581C199.731 13.5783 202.175 13.8898 204.223 14.4997C206.207 15.0904 207.757 15.942 208.633 16.9992L209.192 99.6743Z" fill="url(#paint5_linear)" stroke="#3A3A3A"/>
<path d="M186.083 99.429C186.081 99.1164 186.275 98.7319 186.826 98.304C187.371 97.8819 188.192 97.4779 189.252 97.1272C191.366 96.4276 194.323 95.9756 197.613 95.9533C200.904 95.9311 203.866 96.3431 205.99 97.0141C207.055 97.3504 207.881 97.7432 208.431 98.158C208.989 98.5784 209.187 98.9602 209.19 99.2728C209.192 99.5855 208.998 99.9699 208.446 100.398C207.902 100.82 207.081 101.224 206.021 101.575C203.906 102.274 200.95 102.726 197.659 102.748C194.368 102.771 191.407 102.359 189.283 101.688C188.218 101.351 187.392 100.959 186.842 100.544C186.284 100.123 186.085 99.7416 186.083 99.429Z" fill="url(#paint6_linear)" stroke="#3A3A3A"/>
<path d="M35.7507 124.288L12.6443 124.444L12.0918 42.7208C13.0851 41.6004 14.7305 40.721 16.77 40.1169C18.8797 39.492 21.3548 39.1785 23.8254 39.1756C26.2961 39.1728 28.7408 39.4806 30.7899 40.0837C32.773 40.6674 34.3224 41.5089 35.1982 42.5525L35.7507 124.288Z" fill="url(#paint7_linear)" stroke="#3A3A3A"/>
<path d="M12.6418 124.051C12.6398 123.747 12.8303 123.369 13.3831 122.945C13.9277 122.527 14.7488 122.128 15.8092 121.781C17.9244 121.089 20.881 120.641 24.1724 120.619C27.4637 120.597 30.4261 121.004 32.5504 121.668C33.6155 122 34.4419 122.389 34.9921 122.799C35.5505 123.215 35.7462 123.591 35.7482 123.895C35.7503 124.199 35.5597 124.577 35.007 125.001C34.4624 125.419 33.6413 125.818 32.5809 126.165C30.4657 126.857 27.509 127.304 24.2177 127.327C20.9264 127.349 17.964 126.942 15.8396 126.278C14.7746 125.946 13.9482 125.557 13.398 125.147C12.8396 124.731 12.6439 124.355 12.6418 124.051Z" fill="url(#paint8_linear)" stroke="#3A3A3A"/>
<path d="M122.535 97.8862L99.4285 98.0424L98.876 16.3194C99.8693 15.199 101.515 14.3196 103.554 13.7155C105.664 13.0906 108.139 12.7771 110.61 12.7743C113.08 12.7714 115.525 13.0793 117.574 13.6823C119.557 14.266 121.107 15.1075 121.982 16.1511L122.535 97.8862Z" fill="url(#paint9_linear)" stroke="#3A3A3A"/>
<path d="M99.426 97.6496C99.424 97.3456 99.6145 96.9671 100.167 96.5434C100.712 96.1259 101.533 95.7264 102.593 95.3794C104.709 94.6873 107.665 94.2401 110.957 94.2178C114.248 94.1956 117.21 94.6028 119.335 95.2662C120.4 95.5988 121.226 95.9873 121.776 96.3973C122.335 96.8136 122.53 97.1894 122.532 97.4934C122.534 97.7975 122.344 98.176 121.791 98.5997C121.247 99.0172 120.425 99.4167 119.365 99.7637C117.25 100.456 114.293 100.903 111.002 100.925C107.711 100.947 104.748 100.54 102.624 99.8769C101.559 99.5443 100.732 99.1558 100.182 98.7458C99.6238 98.3295 99.4281 97.9537 99.426 97.6496Z" fill="url(#paint10_linear)" stroke="#3A3A3A"/>
<defs>
<linearGradient id="paint0_linear" x1="146.797" y1="101.493" x2="146.119" y2="1.25149" gradientUnits="userSpaceOnUse">
<stop stop-color="#A7280D"/>
<stop offset="1" stop-color="#FF3F15"/>
</linearGradient>
<linearGradient id="paint1_linear" x1="146.764" y1="175.697" x2="146.063" y2="72.0046" gradientUnits="userSpaceOnUse">
<stop stop-color="#A7280D"/>
<stop offset="1" stop-color="#FF3F15"/>
</linearGradient>
<radialGradient id="paint2_radial" cx="0" cy="0" r="1" gradientUnits="userSpaceOnUse" gradientTransform="translate(144.526 160.195) rotate(90) scale(44.9065 142.95)">
<stop stop-color="#646464"/>
<stop offset="1" stop-color="#4A4A4A"/>
</radialGradient>
<linearGradient id="paint3_linear" x1="269.212" y1="125.091" x2="268.629" y2="38.9022" gradientUnits="userSpaceOnUse">
<stop stop-color="#A7280D"/>
<stop offset="1" stop-color="#FF3F15"/>
</linearGradient>
<linearGradient id="paint4_linear" x1="269.232" y1="128.057" x2="269.179" y2="120.35" gradientUnits="userSpaceOnUse">
<stop stop-color="#A7280D"/>
<stop offset="1" stop-color="#FF3F15"/>
</linearGradient>
<linearGradient id="paint5_linear" x1="197.642" y1="100.252" x2="197.053" y2="13.0819" gradientUnits="userSpaceOnUse">
<stop stop-color="#A7280D"/>
<stop offset="1" stop-color="#FF3F15"/>
</linearGradient>
<linearGradient id="paint6_linear" x1="197.663" y1="103.248" x2="197.61" y2="95.4533" gradientUnits="userSpaceOnUse">
<stop stop-color="#A7280D"/>
<stop offset="1" stop-color="#FF3F15"/>
</linearGradient>
<linearGradient id="paint7_linear" x1="24.2009" y1="124.866" x2="23.6182" y2="38.6766" gradientUnits="userSpaceOnUse">
<stop stop-color="#A7280D"/>
<stop offset="1" stop-color="#FF3F15"/>
</linearGradient>
<linearGradient id="paint8_linear" x1="24.2211" y1="127.827" x2="24.169" y2="120.119" gradientUnits="userSpaceOnUse">
<stop stop-color="#A7280D"/>
<stop offset="1" stop-color="#FF3F15"/>
</linearGradient>
<linearGradient id="paint9_linear" x1="110.985" y1="98.4643" x2="110.402" y2="12.2752" gradientUnits="userSpaceOnUse">
<stop stop-color="#A7280D"/>
<stop offset="1" stop-color="#FF3F15"/>
</linearGradient>
<linearGradient id="paint10_linear" x1="111.005" y1="101.425" x2="110.953" y2="93.7179" gradientUnits="userSpaceOnUse">
<stop stop-color="#A7280D"/>
<stop offset="1" stop-color="#FF3F15"/>
</linearGradient>
</defs>
</svg>
