<svg width="499" height="366" viewBox="0 0 499 366" fill="none" xmlns="http://www.w3.org/2000/svg">
<g id="kick">
<g id="Rectangle 67">
<mask id="path-1-inside-1" fill="white">
<path d="M24.7917 87.0727C39.2981 66.7958 98.7953 23.2352 117.234 31.8708C135.674 40.5065 166.468 227.508 129.233 229.685C91.9977 231.863 48.7573 246.347 24.7918 258.211C0.826234 270.074 10.2854 107.35 24.7917 87.0727Z"/>
</mask>
<path d="M24.7917 87.0727C39.2981 66.7958 98.7953 23.2352 117.234 31.8708C135.674 40.5065 166.468 227.508 129.233 229.685C91.9977 231.863 48.7573 246.347 24.7918 258.211C0.826234 270.074 10.2854 107.35 24.7917 87.0727Z" fill="#2C2C2C" stroke="#E83C3C" stroke-width="44" mask="url(#path-1-inside-1)"/>
</g>
<g id="Rectangle 68">
<mask id="path-2-inside-2" fill="white">
<path d="M480.461 49.7734C467.561 30.1625 356.925 -6.92119 375.279 37.8375C393.633 82.5962 364.394 223.341 395.871 223.86C427.347 224.38 464.318 244.877 484.92 255.662C505.522 266.447 493.361 69.3842 480.461 49.7734Z"/>
</mask>
<path d="M480.461 49.7734C467.561 30.1625 356.925 -6.92119 375.279 37.8375C393.633 82.5962 364.394 223.341 395.871 223.86C427.347 224.38 464.318 244.877 484.92 255.662C505.522 266.447 493.361 69.3842 480.461 49.7734Z" fill="#2C2C2C" stroke="#E83C3C" stroke-width="44" mask="url(#path-2-inside-2)"/>
</g>
<g id="Rectangle 66">
<mask id="path-3-inside-3" fill="white">
<path d="M191.769 19.9362C206.275 -0.340664 298.654 3.09449 317.093 11.7301C335.532 20.3658 363.343 229.071 322.314 221.48C281.286 213.889 215.735 209.617 191.769 221.48C167.804 233.343 177.263 40.213 191.769 19.9362Z"/>
</mask>
<path d="M191.769 19.9362C206.275 -0.340664 298.654 3.09449 317.093 11.7301C335.532 20.3658 363.343 229.071 322.314 221.48C281.286 213.889 215.735 209.617 191.769 221.48C167.804 233.343 177.263 40.213 191.769 19.9362Z" fill="#2C2C2C" stroke="#E83C3C" stroke-width="56" mask="url(#path-3-inside-3)"/>
</g>
<path id="Ellipse 124" d="M467.305 298.453C472.253 301.47 474.505 303.68 475.5 304.898C474.505 306.115 472.253 308.325 467.305 311.342C457.852 317.108 442.841 323.017 422.525 328.258C382.193 338.662 325.392 345.321 261.891 345.321C198.389 345.321 141.588 338.662 101.257 328.258C80.9406 323.017 65.9298 317.108 56.4762 311.342C51.5284 308.325 49.2761 306.115 48.2816 304.898C49.2761 303.68 51.5284 301.47 56.4762 298.453C65.9298 292.687 80.9406 286.778 101.257 281.537C141.588 271.133 198.389 264.474 261.891 264.474C325.392 264.474 382.193 271.133 422.525 281.537C442.841 286.778 457.852 292.687 467.305 298.453Z" fill="#2C2C2C" stroke="white" stroke-width="40"/>
</g>
</svg>
