<svg width="667" height="332" viewBox="0 0 667 332" fill="none" xmlns="http://www.w3.org/2000/svg">
<g id="ride">
<g id="Ellipse 65" filter="url(#filter0_d)">
<ellipse rx="322.093" ry="120.512" transform="matrix(0.97999 -0.199049 -0.16361 -0.986525 335.365 149)" fill="#3E3E3E"/>
<path d="M648.563 85.3853C646 69.9311 635.202 56.5988 617.216 45.8264C599.233 35.0563 574.318 27.0121 544.144 22.0838C483.815 12.2302 403.005 14.9183 316.057 32.5787C229.109 50.239 152.703 79.4836 99.4676 112.404C72.8415 128.869 52.1314 146.18 38.7769 163.315C25.4197 180.454 19.6038 197.161 22.1667 212.615C24.7297 228.069 35.5274 241.401 53.5135 252.174C71.4959 262.944 96.4111 270.988 126.585 275.916C186.914 285.77 267.724 283.082 354.672 265.421C441.621 247.761 518.027 218.516 571.262 185.596C597.888 169.131 618.598 151.82 631.952 134.685C645.31 117.546 651.126 100.839 648.563 85.3853Z" stroke="#FF80F2" stroke-width="5"/>
</g>
<g id="Ellipse 66" filter="url(#filter1_d)">
<path d="M224.609 138.434C223.648 133.345 225.116 127.515 229.442 121.063C233.78 114.594 240.786 107.839 250.151 101.262C268.861 88.1206 296.21 76.2343 327.756 68.9336C359.302 61.6329 388.662 60.3948 410.563 64.1372C421.524 66.0103 430.39 69.0926 436.706 73.0957C443.006 77.0883 446.462 81.7786 447.424 86.8673C448.386 91.956 446.917 97.7859 442.591 104.238C438.254 110.706 431.247 117.462 421.883 124.039C403.172 137.18 375.824 149.066 344.278 156.367C312.732 163.668 283.371 164.906 261.47 161.164C250.509 159.291 241.643 156.208 235.327 152.205C229.027 148.213 225.571 143.522 224.609 138.434Z" stroke="#FF80F2" stroke-width="9"/>
</g>
<g id="Ellipse 67" filter="url(#filter2_d)">
<ellipse rx="79.8978" ry="32.9336" transform="matrix(-0.97425 0.225471 -0.18568 -0.98261 331.666 88.0898)" fill="#3E3E3E"/>
<path d="M256.261 105.541C255.58 101.938 256.634 97.8729 259.594 93.4583C262.561 89.0342 267.329 84.4469 273.658 80.0018C286.305 71.1188 304.758 63.1048 326.015 58.1854C347.272 53.2659 367.08 52.4251 381.884 54.9548C389.292 56.2207 395.321 58.3094 399.641 61.0471C403.952 63.779 406.39 67.0362 407.07 70.6388C407.751 74.2414 406.697 78.3067 403.737 82.7213C400.77 87.1453 396.003 91.7326 389.674 96.1778C377.026 105.061 358.573 113.075 337.317 117.994C316.06 122.914 296.252 123.754 281.447 121.225C274.039 119.959 268.01 117.87 263.69 115.132C259.38 112.4 256.942 109.143 256.261 105.541Z" stroke="#FF80F2" stroke-width="5"/>
</g>
</g>
<defs>
<filter id="filter0_d" x="11.0908" y="5.90088" width="648.548" height="286.198" filterUnits="userSpaceOnUse" color-interpolation-filters="sRGB">
<feFlood flood-opacity="0" result="BackgroundImageFix"/>
<feColorMatrix in="SourceAlpha" type="matrix" values="0 0 0 0 0 0 0 0 0 0 0 0 0 0 0 0 0 0 127 0"/>
<feOffset/>
<feGaussianBlur stdDeviation="4"/>
<feColorMatrix type="matrix" values="0 0 0 0 1 0 0 0 0 1 0 0 0 0 1 0 0 0 0.25 0"/>
<feBlend mode="normal" in2="BackgroundImageFix" result="effect1_dropShadow"/>
<feBlend mode="normal" in="SourceGraphic" in2="effect1_dropShadow" result="shape"/>
</filter>
<filter id="filter1_d" x="211.862" y="49.5454" width="248.308" height="126.21" filterUnits="userSpaceOnUse" color-interpolation-filters="sRGB">
<feFlood flood-opacity="0" result="BackgroundImageFix"/>
<feColorMatrix in="SourceAlpha" type="matrix" values="0 0 0 0 0 0 0 0 0 0 0 0 0 0 0 0 0 0 127 0"/>
<feOffset/>
<feGaussianBlur stdDeviation="4"/>
<feColorMatrix type="matrix" values="0 0 0 0 1 0 0 0 0 1 0 0 0 0 1 0 0 0 0.25 0"/>
<feBlend mode="normal" in2="BackgroundImageFix" result="effect1_dropShadow"/>
<feBlend mode="normal" in="SourceGraphic" in2="effect1_dropShadow" result="shape"/>
</filter>
<filter id="filter2_d" x="245.582" y="43.0459" width="172.168" height="90.0879" filterUnits="userSpaceOnUse" color-interpolation-filters="sRGB">
<feFlood flood-opacity="0" result="BackgroundImageFix"/>
<feColorMatrix in="SourceAlpha" type="matrix" values="0 0 0 0 0 0 0 0 0 0 0 0 0 0 0 0 0 0 127 0"/>
<feOffset/>
<feGaussianBlur stdDeviation="4"/>
<feColorMatrix type="matrix" values="0 0 0 0 1 0 0 0 0 1 0 0 0 0 1 0 0 0 0.25 0"/>
<feBlend mode="normal" in2="BackgroundImageFix" result="effect1_dropShadow"/>
<feBlend mode="normal" in="SourceGraphic" in2="effect1_dropShadow" result="shape"/>
</filter>
</defs>
</svg>
