<svg width="161" height="141" viewBox="0 0 161 141" fill="none" xmlns="http://www.w3.org/2000/svg">
<path d="M134.405 119.076L134.405 119.077C134.404 119.078 134.404 119.081 134.402 119.085C134.399 119.094 134.391 119.118 134.37 119.156C134.329 119.234 134.232 119.391 134.018 119.615C133.57 120.089 132.729 120.737 131.292 121.442C128.389 122.868 123.92 124.11 117.965 124.91C106.137 126.499 89.8283 126.169 71.9342 123.384C54.0402 120.599 38.4025 115.958 27.6166 110.849C22.1869 108.277 18.3068 105.736 15.974 103.495C14.8197 102.386 14.2155 101.513 13.9318 100.926C13.7969 100.647 13.7514 100.468 13.7361 100.382C13.7285 100.339 13.7274 100.314 13.7272 100.305C13.7272 100.303 13.7272 100.302 13.7272 100.3C13.7273 100.298 13.7274 100.297 13.7274 100.296L13.7275 100.295L13.7278 100.293C13.728 100.292 13.7287 100.29 13.7303 100.285C13.7333 100.276 13.7419 100.253 13.7622 100.214C13.803 100.136 13.9008 99.9797 14.1141 99.7548C14.5629 99.2816 15.4038 98.6335 16.8405 97.9279C19.7439 96.502 24.2127 95.2603 30.1672 94.4602C41.9955 92.8709 58.3042 93.2011 76.1982 95.986C94.0923 98.7709 109.73 103.412 120.516 108.521C125.946 111.093 129.826 113.634 132.158 115.875C133.313 116.984 133.917 117.857 134.201 118.444C134.336 118.723 134.381 118.902 134.396 118.988C134.404 119.031 134.405 119.056 134.405 119.066C134.405 119.071 134.405 119.073 134.405 119.074L134.405 119.076Z" fill="#3A3A3A" stroke="url(#paint0_linear)" stroke-width="12"/>
<rect width="127.651" height="45.1679" transform="matrix(0.987761 0.155975 -0.155436 0.987846 17.974 55.5713)" fill="#3A3A3A"/>
<mask id="path-3-inside-1" fill="white">
<ellipse cx="79.6656" cy="76.1281" rx="67.2412" ry="21.2287" transform="rotate(8.84602 79.6656 76.1281)"/>
</mask>
<ellipse cx="79.6656" cy="76.1281" rx="67.2412" ry="21.2287" transform="rotate(8.84602 79.6656 76.1281)" fill="#3A3A3A"/>
<path d="M121.404 82.6239C122.043 78.5231 123.913 75.5556 125.461 73.8239C126.197 73.0009 126.844 72.4675 127.25 72.166C127.658 71.8634 127.908 71.7312 127.92 71.725C127.936 71.7166 127.79 71.7942 127.443 71.9294C127.1 72.0634 126.612 72.2337 125.959 72.4233C124.636 72.8078 122.85 73.21 120.567 73.5583C111.105 75.002 96.7854 74.9758 80.2456 72.4017L72.5566 121.807C92.7113 124.944 112.343 125.392 128.109 122.986C135.841 121.806 144.112 119.726 151.31 115.916C158.009 112.371 168.584 104.613 170.81 90.3129L121.404 82.6239ZM80.2456 72.4017C63.7057 69.8276 50.0551 65.5007 41.4792 61.2497C39.4109 60.2244 37.8313 59.2983 36.6873 58.5298C36.1235 58.151 35.7099 57.8402 35.4236 57.6084C35.1345 57.3741 35.0194 57.256 35.0319 57.2688C35.0412 57.2783 35.2395 57.4803 35.5359 57.8925C35.8313 58.3032 36.2856 59.008 36.7364 60.0156C37.685 62.1358 38.5651 65.5314 37.9269 69.6322L-11.4784 61.9433C-13.704 76.2436 -5.98664 86.8479 -0.682274 92.2617C5.01752 98.0789 12.2654 102.574 19.2729 106.048C33.5626 113.131 52.4019 118.67 72.5566 121.807L80.2456 72.4017ZM37.9269 69.6322C37.2886 73.7331 35.4182 76.7006 33.8702 78.4323C33.1345 79.2552 32.4875 79.7886 32.0813 80.0902C31.6736 80.3927 31.4233 80.5249 31.4116 80.5311C31.3957 80.5395 31.5413 80.462 31.8879 80.3267C32.2311 80.1928 32.7197 80.0224 33.3719 79.8329C34.6953 79.4484 36.4816 79.0461 38.7638 78.6979C48.2259 77.2541 62.5459 77.2804 79.0857 79.8545L86.7747 30.4492C66.6199 27.3125 46.9884 26.8643 31.2219 29.27C23.4902 30.4497 15.219 32.5298 8.02088 36.3398C1.32217 39.8854 -9.25283 47.6429 -11.4784 61.9433L37.9269 69.6322ZM79.0857 79.8545C95.6255 82.4286 109.276 86.7554 117.852 91.0065C119.92 92.0317 121.5 92.9579 122.644 93.7264C123.208 94.1051 123.621 94.4159 123.908 94.6478C124.197 94.882 124.312 95.0001 124.299 94.9873C124.29 94.9778 124.092 94.7758 123.795 94.3637C123.5 93.9529 123.046 93.2482 122.595 92.2405C121.646 90.1203 120.766 86.7247 121.404 82.6239L170.81 90.3129C173.035 76.0125 165.318 65.4082 160.014 59.9945C154.314 54.1772 147.066 49.6818 140.058 46.2082C125.769 39.1249 106.929 33.5859 86.7747 30.4492L79.0857 79.8545Z" fill="url(#paint1_linear)" mask="url(#path-3-inside-1)"/>
<ellipse cx="82.1667" cy="64.082" rx="63.0875" ry="21.955" transform="rotate(8.84602 82.1667 64.082)" fill="#3A3A3A"/>
<ellipse cx="85.2642" cy="41.6923" rx="71.6281" ry="31.0467" transform="rotate(8.84602 85.2642 41.6923)" fill="url(#paint2_radial)"/>
<path d="M14.8923 54.9655L25.8398 56.6692L18.6451 102.899C18.0958 103.388 17.2744 103.724 16.2727 103.892C15.2068 104.071 13.9854 104.05 12.7882 103.856C11.5909 103.662 10.4405 103.298 9.51393 102.806C8.64169 102.342 8.01356 101.791 7.6959 101.206L14.8923 54.9655Z" fill="url(#paint3_linear)" stroke="#3A3A3A"/>
<path d="M25.8387 56.6795C25.8221 56.7862 25.7394 56.9412 25.465 57.1135C25.192 57.285 24.7826 57.437 24.2453 57.5446C23.1749 57.7591 21.7059 57.7762 20.1006 57.5264C18.4952 57.2765 17.1009 56.8138 16.1463 56.2842C15.6672 56.0184 15.3233 55.7492 15.1154 55.5028C14.9063 55.2552 14.8746 55.0824 14.8912 54.9757C14.9078 54.8691 14.9905 54.7141 15.2649 54.5417C15.5379 54.3702 15.9474 54.2182 16.4846 54.1106C17.555 53.8961 19.024 53.879 20.6293 54.1289C22.2347 54.3787 23.629 54.8414 24.5836 55.371C25.0627 55.6369 25.4066 55.9061 25.6146 56.1524C25.8236 56.4 25.8553 56.5728 25.8387 56.6795Z" fill="url(#paint4_linear)" stroke="#3A3A3A"/>
<path d="M49.4244 71.0514L60.3719 72.7552L53.0938 119.52C52.5429 120.018 51.7197 120.359 50.7171 120.531C49.6512 120.713 48.43 120.695 47.2334 120.501C46.0367 120.306 44.8871 119.94 43.9616 119.444C43.0896 118.977 42.4615 118.42 42.1446 117.827L49.4244 71.0514Z" fill="url(#paint5_linear)" stroke="#3A3A3A"/>
<path d="M60.3709 72.7728C60.3534 72.8852 60.2677 73.0435 59.9933 73.2181C59.7198 73.392 59.3101 73.5463 58.7729 73.656C57.7025 73.8746 56.2337 73.8944 54.6289 73.6447C53.0241 73.3949 51.6308 72.9296 50.6774 72.3961C50.1989 72.1283 49.8555 71.8568 49.6478 71.608C49.4394 71.3583 49.4059 71.1815 49.4234 71.0691C49.4409 70.9567 49.5266 70.7984 49.801 70.6238C50.0745 70.4499 50.4841 70.2956 51.0214 70.1859C52.0918 69.9673 53.5606 69.9475 55.1654 70.1972C56.7702 70.447 58.1635 70.9123 59.1169 71.4458C59.5954 71.7136 59.9388 71.9851 60.1464 72.2339C60.3549 72.4836 60.3884 72.6604 60.3709 72.7728Z" fill="url(#paint6_linear)" stroke="#3A3A3A"/>
<path d="M94.9032 78.0993L105.851 79.803L98.6559 126.032C98.1067 126.522 97.2852 126.858 96.2835 127.026C95.2177 127.205 93.9962 127.184 92.7991 126.99C91.6018 126.796 90.4514 126.431 89.5248 125.939C88.6525 125.476 88.0244 124.925 87.7068 124.34L94.9032 78.0993Z" fill="url(#paint7_linear)" stroke="#3A3A3A"/>
<path d="M105.849 79.8162C105.832 79.9229 105.75 80.0779 105.475 80.2503C105.202 80.4217 104.793 80.5737 104.255 80.6814C103.185 80.8958 101.716 80.9129 100.111 80.6631C98.5054 80.4132 97.1111 79.9505 96.1566 79.4209C95.6774 79.1551 95.3335 78.8859 95.1256 78.6395C94.9165 78.3919 94.8848 78.2191 94.9014 78.1125C94.918 78.0058 95.0008 77.8508 95.2752 77.6784C95.5481 77.5069 95.9576 77.355 96.4948 77.2473C97.5652 77.0329 99.0342 77.0158 100.64 77.2656C102.245 77.5154 103.639 77.9782 104.594 78.5078C105.073 78.7736 105.417 79.0428 105.625 79.2891C105.834 79.5367 105.866 79.7095 105.849 79.8162Z" fill="url(#paint8_linear)" stroke="#3A3A3A"/>
<path d="M136.749 74.0006L147.696 75.7044L140.501 121.934C139.952 122.423 139.131 122.759 138.129 122.927C137.063 123.106 135.842 123.086 134.645 122.891C133.447 122.697 132.297 122.333 131.37 121.841C130.498 121.378 129.87 120.826 129.552 120.241L136.749 74.0006Z" fill="url(#paint9_linear)" stroke="#3A3A3A"/>
<path d="M147.694 75.7166C147.678 75.8233 147.595 75.9783 147.32 76.1507C147.047 76.3221 146.638 76.4741 146.101 76.5818C145.03 76.7962 143.561 76.8133 141.956 76.5635C140.351 76.3136 138.956 75.8509 138.002 75.3213C137.523 75.0555 137.179 74.7863 136.971 74.5399C136.762 74.2923 136.73 74.1195 136.747 74.0128C136.763 73.9062 136.846 73.7512 137.12 73.5788C137.393 73.4073 137.803 73.2553 138.34 73.1477C139.41 72.9333 140.879 72.9161 142.485 73.166C144.09 73.4158 145.484 73.8785 146.439 74.4082C146.918 74.674 147.262 74.9432 147.47 75.1895C147.679 75.4371 147.711 75.6099 147.694 75.7166Z" fill="url(#paint10_linear)" stroke="#3A3A3A"/>
<defs>
<linearGradient id="paint0_linear" x1="77.1209" y1="90.0574" x2="71.0116" y2="129.313" gradientUnits="userSpaceOnUse">
<stop stop-color="#00FF47"/>
<stop offset="1" stop-color="#007C23"/>
</linearGradient>
<linearGradient id="paint1_linear" x1="82.9302" y1="55.1518" x2="76.4011" y2="97.1043" gradientUnits="userSpaceOnUse">
<stop stop-color="#00FF47"/>
<stop offset="1" stop-color="#007C23"/>
</linearGradient>
<radialGradient id="paint2_radial" cx="0" cy="0" r="1" gradientUnits="userSpaceOnUse" gradientTransform="translate(85.2642 41.6923) rotate(90) scale(31.0467 71.6281)">
<stop stop-color="#646464"/>
<stop offset="1" stop-color="#4A4A4A"/>
</radialGradient>
<linearGradient id="paint3_linear" x1="20.4429" y1="55.3233" x2="12.8104" y2="104.366" gradientUnits="userSpaceOnUse">
<stop stop-color="#00FF47"/>
<stop offset="1" stop-color="#007C23"/>
</linearGradient>
<linearGradient id="paint4_linear" x1="20.7062" y1="53.6348" x2="20.0237" y2="58.0204" gradientUnits="userSpaceOnUse">
<stop stop-color="#00FF47"/>
<stop offset="1" stop-color="#007C23"/>
</linearGradient>
<linearGradient id="paint5_linear" x1="54.975" y1="71.4092" x2="47.2556" y2="121.01" gradientUnits="userSpaceOnUse">
<stop stop-color="#00FF47"/>
<stop offset="1" stop-color="#007C23"/>
</linearGradient>
<linearGradient id="paint6_linear" x1="55.2423" y1="69.7032" x2="54.552" y2="74.1387" gradientUnits="userSpaceOnUse">
<stop stop-color="#00FF47"/>
<stop offset="1" stop-color="#007C23"/>
</linearGradient>
<linearGradient id="paint7_linear" x1="100.454" y1="78.4571" x2="92.8213" y2="127.5" gradientUnits="userSpaceOnUse">
<stop stop-color="#00FF47"/>
<stop offset="1" stop-color="#007C23"/>
</linearGradient>
<linearGradient id="paint8_linear" x1="100.716" y1="76.7715" x2="100.034" y2="81.1571" gradientUnits="userSpaceOnUse">
<stop stop-color="#00FF47"/>
<stop offset="1" stop-color="#007C23"/>
</linearGradient>
<linearGradient id="paint9_linear" x1="142.299" y1="74.3585" x2="134.667" y2="123.401" gradientUnits="userSpaceOnUse">
<stop stop-color="#00FF47"/>
<stop offset="1" stop-color="#007C23"/>
</linearGradient>
<linearGradient id="paint10_linear" x1="142.562" y1="72.6719" x2="141.879" y2="77.0575" gradientUnits="userSpaceOnUse">
<stop stop-color="#00FF47"/>
<stop offset="1" stop-color="#007C23"/>
</linearGradient>
</defs>
</svg>
