<svg width="340" height="336" viewBox="0 0 340 336" fill="none" xmlns="http://www.w3.org/2000/svg">
<g id="tom1">
<path id="Rectangle 61" d="M125.037 287.581C125.687 285.534 126.153 283.478 126.48 281.696C109.765 277.252 90.6267 267.932 74.6713 257.332C66.521 251.917 59.0378 246.06 53.0259 240.188C53.1699 240.67 53.3178 241.162 53.4697 241.664C58.1236 257.04 71.6438 271.3 86.2111 281.707C93.4019 286.844 100.599 290.86 106.638 293.471C109.66 294.777 112.303 295.693 114.444 296.231C116.705 296.799 117.956 296.831 118.391 296.775C119.398 296.645 120.501 296.071 121.752 294.443C123.05 292.754 124.159 290.346 125.037 287.581Z" fill="#2C2C2C" stroke="#34FF61" stroke-width="12"/>
<path id="Rectangle 60" d="M258.065 265.63C259.444 264.942 260.782 264.245 262.069 263.54C258.761 269.92 254.66 276.105 250.852 279.404C248.233 281.673 242.444 284.874 234.37 288.376C226.48 291.799 216.937 295.288 207.282 298.248C197.609 301.214 187.973 303.603 179.881 304.883C175.83 305.523 172.298 305.864 169.422 305.89C166.396 305.917 164.704 305.584 164.013 305.323C162.593 304.786 162.002 304.112 161.562 302.709C160.98 300.853 160.936 298.144 161.504 294.871C162.05 291.721 163.053 288.641 163.956 286.292C164.018 286.132 164.079 285.976 164.139 285.824C186.171 287.133 210.028 282.8 229.913 276.669C240.563 273.385 250.239 269.535 258.065 265.63Z" fill="#2C2C2C" stroke="#34FF61" stroke-width="13"/>
<path id="Ellipse 122" d="M295.253 164.294C286.23 219.38 224.501 259.629 152.384 247.817C80.2674 236.005 34.6032 178.166 43.6256 123.08C52.648 67.994 114.378 27.7449 186.494 39.5566C258.611 51.3684 304.275 109.207 295.253 164.294Z" fill="#2C2C2C" stroke="white" stroke-width="33"/>
<path id="Rectangle 64" d="M282.38 240.847C293.742 231.935 301.228 218.908 303.7 213.172C303.197 225.722 280.041 264.763 282.38 252.966C284.719 241.168 282.38 240.847 282.38 240.847Z" fill="#34FF61"/>
</g>
</svg>
