<svg width="179" height="142" viewBox="0 0 179 142" fill="none" xmlns="http://www.w3.org/2000/svg">
<path d="M160.425 97.5826C162.704 98.5441 163.523 99.3167 163.794 99.6396C163.63 100.028 163.073 101.006 161.175 102.594C158.358 104.95 153.762 107.599 147.458 110.273C134.936 115.586 116.94 120.476 96.4814 123.54C76.0231 126.604 57.3845 127.202 43.8548 125.791C37.0436 125.08 31.874 123.894 28.4893 122.467C26.2102 121.505 25.391 120.732 25.1198 120.41C25.2845 120.021 25.8414 119.043 27.7388 117.456C30.5566 115.099 35.152 112.45 41.4562 109.776C53.9787 104.463 71.9744 99.5729 92.4328 96.5088C112.891 93.4446 131.53 92.8474 145.059 94.2586C151.871 94.9689 157.04 96.1546 160.425 97.5826Z" fill="#3A3A3A" stroke="url(#paint0_linear)" stroke-width="12"/>
<rect width="145.031" height="44.719" transform="matrix(0.989254 -0.146207 0.146219 0.989252 16.2533 76.8428)" fill="#3A3A3A"/>
<mask id="path-3-inside-1" fill="white">
<ellipse cx="89.8866" cy="76.6525" rx="76.3964" ry="21.0177" transform="rotate(-8.51814 89.8866 76.6525)"/>
</mask>
<ellipse cx="89.8866" cy="76.6525" rx="76.3964" ry="21.0177" transform="rotate(-8.51814 89.8866 76.6525)" fill="#3A3A3A"/>
<path d="M140.716 69.0395C139.2 58.919 145.81 54.1205 144.13 55.6099C143.405 56.2523 140.819 58.0838 135.384 60.4924C124.85 65.1603 108.598 69.8233 89.2967 72.7141L96.7028 122.163C119.129 118.804 139.956 113.156 155.641 106.205C163.315 102.804 171.123 98.4995 177.3 93.0231C182.521 88.3937 192.54 77.4937 190.165 61.6334L140.716 69.0395ZM89.2967 72.7141C69.9956 75.6049 53.0903 75.9081 41.6513 74.5311C35.749 73.8206 32.7397 72.8272 31.8587 72.4252C29.8161 71.4934 37.5413 74.145 39.0571 84.2654L-10.3914 91.6716C-8.01588 107.532 4.75663 115.018 11.1054 117.915C18.6158 121.341 27.3419 123.17 35.6755 124.173C52.7084 126.223 74.2768 125.521 96.7028 122.163L89.2967 72.7141ZM39.0571 84.2654C40.5729 94.3859 33.9635 99.1845 35.6435 97.695C36.368 97.0526 38.9543 95.2211 44.3894 92.8125C54.923 88.1446 71.1753 83.4816 90.4764 80.5908L83.0703 31.1424C60.6443 34.5012 39.8167 40.1493 24.132 47.1C16.4579 50.5007 8.65041 54.8054 2.47342 60.2818C-2.74815 64.9112 -12.7668 75.8112 -10.3914 91.6716L39.0571 84.2654ZM90.4764 80.5908C109.778 77.7 126.683 77.3968 138.122 78.7738C144.024 79.4843 147.033 80.4778 147.914 80.8797C149.957 81.8116 142.232 79.16 140.716 69.0395L190.165 61.6334C187.789 45.773 175.017 38.2866 168.668 35.3901C161.157 31.9637 152.431 30.1354 144.098 29.1322C127.065 27.0818 105.496 27.7835 83.0703 31.1424L90.4764 80.5908Z" fill="url(#paint1_linear)" mask="url(#path-3-inside-1)"/>
<ellipse cx="88.78" cy="64.5167" rx="71.6772" ry="21.7368" transform="rotate(-8.51814 88.78 64.5167)" fill="#3A3A3A"/>
<ellipse cx="85.0359" cy="42.4531" rx="81.3806" ry="30.738" transform="rotate(-8.51814 85.0359 42.4531)" fill="url(#paint2_radial)"/>
<path d="M12.6426 77.2651L25.2262 75.3805L32.0834 121.164C31.636 121.802 30.8399 122.386 29.7925 122.866C28.6761 123.379 27.3272 123.75 25.9514 123.948C24.5755 124.146 23.1941 124.168 22.0151 123.996C20.9074 123.835 20.0387 123.512 19.5016 123.061L12.6426 77.2651Z" fill="url(#paint3_linear)" stroke="#3A3A3A"/>
<path d="M25.2274 75.386C25.2386 75.4608 25.2145 75.6255 24.9578 75.8881C24.7082 76.1434 24.3014 76.4222 23.7431 76.6978C22.6318 77.2463 21.0243 77.7316 19.187 78.0068C17.3498 78.2819 15.6707 78.2889 14.4474 78.09C13.8329 77.9901 13.3623 77.8427 13.0488 77.6717C12.7264 77.4959 12.6551 77.3455 12.6439 77.2707C12.6327 77.1959 12.6568 77.0312 12.9135 76.7687C13.1632 76.5134 13.5699 76.2346 14.1282 75.959C15.2395 75.4104 16.847 74.9251 18.6843 74.6499C20.5215 74.3748 22.2007 74.3678 23.4239 74.5667C24.0385 74.6666 24.5091 74.814 24.8225 74.985C25.1449 75.1608 25.2162 75.3112 25.2274 75.386Z" fill="url(#paint4_linear)" stroke="#3A3A3A"/>
<path d="M55.3138 81.4702L67.8973 79.5855L74.8341 125.9C74.3876 126.546 73.5916 127.135 72.5442 127.62C71.4289 128.136 70.0808 128.509 68.7055 128.707C67.33 128.905 65.9488 128.925 64.7697 128.749C63.6609 128.584 62.7906 128.255 62.2522 127.796L55.3138 81.4702Z" fill="url(#paint5_linear)" stroke="#3A3A3A"/>
<path d="M67.9008 79.5973C67.9129 79.678 67.8864 79.8465 67.6307 80.1109C67.3815 80.3686 66.9753 80.6497 66.4176 80.9273C65.3075 81.4798 63.7009 81.9677 61.8641 82.2428C60.0274 82.5179 58.3484 82.5221 57.1251 82.319C56.5105 82.217 56.0398 82.0673 55.726 81.8939C55.4041 81.7161 55.3294 81.5627 55.3173 81.482C55.3052 81.4012 55.3317 81.2327 55.5874 80.9683C55.8366 80.7106 56.2428 80.4296 56.8005 80.152C57.9106 79.5994 59.5172 79.1116 61.354 78.8365C63.1908 78.5614 64.8697 78.5571 66.093 78.7602C66.7076 78.8622 67.1783 79.0119 67.4921 79.1853C67.814 79.3632 67.8887 79.5165 67.9008 79.5973Z" fill="url(#paint6_linear)" stroke="#3A3A3A"/>
<path d="M107.02 73.6948L119.604 71.8101L126.461 117.594C126.013 118.232 125.217 118.815 124.17 119.296C123.054 119.808 121.705 120.18 120.329 120.378C118.953 120.576 117.572 120.598 116.392 120.426C115.285 120.265 114.416 119.941 113.879 119.49L107.02 73.6948Z" fill="url(#paint7_linear)" stroke="#3A3A3A"/>
<path d="M119.605 71.8177C119.616 71.8925 119.592 72.0571 119.335 72.3197C119.086 72.575 118.679 72.8538 118.121 73.1294C117.009 73.678 115.402 74.1632 113.564 74.4384C111.727 74.7136 110.048 74.7206 108.825 74.5217C108.21 74.4217 107.74 74.2743 107.426 74.1034C107.104 73.9275 107.033 73.7772 107.021 73.7024C107.01 73.6275 107.034 73.4629 107.291 73.2003C107.541 72.945 107.947 72.6662 108.506 72.3906C109.617 71.842 111.224 71.3568 113.062 71.0816C114.899 70.8064 116.578 70.7994 117.801 70.9983C118.416 71.0983 118.887 71.2457 119.2 71.4166C119.522 71.5925 119.594 71.7428 119.605 71.8177Z" fill="url(#paint8_linear)" stroke="#3A3A3A"/>
<path d="M151.233 56.5757L163.817 54.691L170.674 100.475C170.227 101.113 169.43 101.696 168.383 102.177C167.267 102.689 165.918 103.061 164.542 103.259C163.166 103.457 161.785 103.479 160.606 103.307C159.498 103.146 158.629 102.822 158.092 102.371L151.233 56.5757Z" fill="url(#paint9_linear)" stroke="#3A3A3A"/>
<path d="M163.818 54.6995C163.829 54.7743 163.805 54.939 163.548 55.2015C163.299 55.4568 162.892 55.7356 162.334 56.0112C161.222 56.5598 159.615 57.0451 157.778 57.3202C155.94 57.5954 154.261 57.6024 153.038 57.4035C152.423 57.3036 151.953 57.1562 151.639 56.9852C151.317 56.8094 151.246 56.659 151.234 56.5842C151.223 56.5093 151.247 56.3447 151.504 56.0821C151.754 55.8268 152.16 55.548 152.719 55.2724C153.83 54.7239 155.438 54.2386 157.275 53.9634C159.112 53.6883 160.791 53.6813 162.014 53.8802C162.629 53.9801 163.1 54.1275 163.413 54.2985C163.735 54.4743 163.807 54.6247 163.818 54.6995Z" fill="url(#paint10_linear)" stroke="#3A3A3A"/>
<defs>
<linearGradient id="paint0_linear" x1="91.5441" y1="90.5749" x2="97.3702" y2="129.474" gradientUnits="userSpaceOnUse">
<stop stop-color="#FBFF2C"/>
<stop offset="1" stop-color="#979A15"/>
</linearGradient>
<linearGradient id="paint1_linear" x1="86.7734" y1="55.8666" x2="92.9998" y2="97.4383" gradientUnits="userSpaceOnUse">
<stop stop-color="#FBFF2C"/>
<stop offset="1" stop-color="#979A15"/>
</linearGradient>
<radialGradient id="paint2_radial" cx="0" cy="0" r="1" gradientUnits="userSpaceOnUse" gradientTransform="translate(85.0359 42.4531) rotate(90) scale(30.738 81.3806)">
<stop stop-color="#646464"/>
<stop offset="1" stop-color="#4A4A4A"/>
</radialGradient>
<linearGradient id="paint3_linear" x1="18.8603" y1="75.8283" x2="26.139" y2="124.426" gradientUnits="userSpaceOnUse">
<stop stop-color="#FBFF2C"/>
<stop offset="1" stop-color="#979A15"/>
</linearGradient>
<linearGradient id="paint4_linear" x1="18.6102" y1="74.1555" x2="19.2611" y2="78.5013" gradientUnits="userSpaceOnUse">
<stop stop-color="#FBFF2C"/>
<stop offset="1" stop-color="#979A15"/>
</linearGradient>
<linearGradient id="paint5_linear" x1="61.5315" y1="80.0334" x2="68.893" y2="129.184" gradientUnits="userSpaceOnUse">
<stop stop-color="#FBFF2C"/>
<stop offset="1" stop-color="#979A15"/>
</linearGradient>
<linearGradient id="paint6_linear" x1="61.2799" y1="78.342" x2="61.9382" y2="82.7373" gradientUnits="userSpaceOnUse">
<stop stop-color="#FBFF2C"/>
<stop offset="1" stop-color="#979A15"/>
</linearGradient>
<linearGradient id="paint7_linear" x1="113.238" y1="72.258" x2="120.516" y2="120.856" gradientUnits="userSpaceOnUse">
<stop stop-color="#FBFF2C"/>
<stop offset="1" stop-color="#979A15"/>
</linearGradient>
<linearGradient id="paint8_linear" x1="112.988" y1="70.5871" x2="113.639" y2="74.9329" gradientUnits="userSpaceOnUse">
<stop stop-color="#FBFF2C"/>
<stop offset="1" stop-color="#979A15"/>
</linearGradient>
<linearGradient id="paint9_linear" x1="157.451" y1="55.1389" x2="164.73" y2="103.736" gradientUnits="userSpaceOnUse">
<stop stop-color="#FBFF2C"/>
<stop offset="1" stop-color="#979A15"/>
</linearGradient>
<linearGradient id="paint10_linear" x1="157.201" y1="53.4689" x2="157.852" y2="57.8147" gradientUnits="userSpaceOnUse">
<stop stop-color="#FBFF2C"/>
<stop offset="1" stop-color="#979A15"/>
</linearGradient>
</defs>
</svg>
